# xmcd
#
# Track frame offsets:
#	150
#	20700
#	36585
#	52280
#	64772
#	80977
#	98107
#	113527
#	128425
#	147292
#
# Disc length: 2138 seconds
# Revision: 4
# Processed by: cddbd v1.5.2PL0 Copyright (c) Steve Scherf et al.
# Submitted via: dBpowerAMP V12.0
#
DISCID=9008580a
DTITLE=Tanya Tucker - Soon
DYEAR=1993
DGENRE=Country
TTITLE0=You Just Watch Me
TTITLE1=Come On Honey
TTITLE2=Soon
TTITLE3=I Love You Anyway
TTITLE4=Let The Good Times Roll
TTITLE5=We Don't Have To Do This
TTITLE6=Hangin' In
TTITLE7=Sneaky Moon
TTITLE8=Silence Is King
TTITLE9=A Blue Guitar
EXTD=
EXTT0=
EXTT1=
EXTT2=
EXTT3=
EXTT4=
EXTT5=
EXTT6=
EXTT7=
EXTT8=
EXTT9=
PLAYORDER=
